<svg width="39" height="44" viewBox="0 0 39 44" fill="none" xmlns="http://www.w3.org/2000/svg">
<path d="M39 39.9999L19.5 22.4999L0 39.9999H5.5C5.5 39.9999 5.49121 41.673 5.47925 43.9999H32.5V39.9999H39Z" fill="#FD4F50"/>
<path d="M8.6416 19.9999H30.3578L19.5005 29.4999L8.6416 19.9999Z" fill="#505050" fill-opacity="0.5"/>
<path d="M8.64664 -0.00012207H30.3706V19.9999H8.64648L8.64664 -0.00012207Z" fill="#D9D9D9"/>
<path d="M19.5 11.3332C15.6325 11.3332 12.5 13.7365 12.5 16.7037V17.9999H26.5V16.7037C26.5 13.7365 23.3675 11.3332 19.5 11.3332Z" fill="#0A0B0D"/>
<path d="M19.5 9.66654C21.433 9.66654 23 8.17416 23 6.33321C23 4.49226 21.433 2.99988 19.5 2.99988C17.567 2.99988 16 4.49226 16 6.33321C16 8.17416 17.567 9.66654 19.5 9.66654Z" fill="#0A0B0D"/>
<path d="M15.5 25.9999L19.5 22.4999L23.5 25.9999L19.5005 29.4999L15.5 25.9999Z" fill="#0A0B0D"/>
<path d="M6 27.9999H11V34.9999H6V27.9999Z" fill="#FD4F50"/>
</svg>
