<svg width="94" height="95" viewBox="0 0 94 95" fill="none" xmlns="http://www.w3.org/2000/svg">
<rect y="5.97656" width="93.1493" height="72.5839" fill="#FEE2E2"/>
<rect width="93.1493" height="6.16883" fill="#F96161"/>
<rect x="11.1035" y="78.3442" width="70.3247" height="16.6558" fill="#FEE2E2"/>
<rect x="11.1035" y="6.16895" width="70.3247" height="72.1753" fill="#FFA6A6"/>
<path d="M73.3448 43H21.6934V46.5H73.3448V43Z" fill="#FAFAFA"/>
<path d="M73.3448 53H21.6934V56.5H73.3448V53Z" fill="#FAFAFA"/>
<path d="M73.3448 33.4878H21.6934V36.9878H73.3448V33.4878Z" fill="#FAFAFA"/>
<path d="M40 63H22V66.5H40V63Z" fill="#FAFAFA"/>
<path d="M63 24H22V27.5H63V24Z" fill="#FAFAFA"/>
<path d="M47.0052 25.2236C37.0312 25.2236 28.9238 33.3297 28.9238 43.2966C28.9238 53.2634 37.0312 61.3797 47.0052 61.3797C56.9725 61.3797 65.0799 53.2668 65.0799 43.3C65.0799 33.3331 56.9725 25.2236 47.0052 25.2236ZM47.0052 31.3201C49.2006 31.3201 51.2639 31.9156 53.0324 32.9576L36.6619 49.322C35.6252 47.5492 35.0289 45.4889 35.0289 43.2966C35.0255 36.6926 40.3988 31.3201 47.0052 31.3201ZM47.0052 55.2798C44.8065 55.2798 42.7466 54.6844 40.9713 53.6423L57.3486 37.2677C58.3853 39.0405 58.9782 41.1009 58.9782 43.2966C58.9782 49.9039 53.6049 55.2798 47.0052 55.2798Z" fill="#FD4F50"/>
</svg>
