<svg width="46" height="41" viewBox="0 0 46 41" fill="none" xmlns="http://www.w3.org/2000/svg">
<path d="M22.9861 0L46 19.3463H38.4342C38.4342 19.3463 38.4342 32.5103 38.4342 40.9453C38.4342 40.9453 38.4944 40.9453 37.8289 40.9453H8.17105C7.5056 40.9453 7.26316 40.9453 7.26316 40.9453C6.65251 40.9453 6.7972 40.9453 6.7972 40.9453C6.7972 40.0102 6.7972 19.3463 6.7972 19.3463H0L22.9861 0Z" fill="#FD4F50"/>
<path d="M33.8947 6.02941H12.1053V16.8824H33.8947V6.02941Z" fill="#CED2DB"/>
<path d="M33.8947 15.6765H12.1053V41H33.8947V15.6765Z" fill="#0A0B0D"/>
<path fill-rule="evenodd" clip-rule="evenodd" d="M23 27.9765C21.8228 27.9765 20.6938 27.5191 19.8614 26.705C19.029 25.8908 18.5614 24.7866 18.5614 23.6353C18.5614 22.4839 19.029 21.3797 19.8614 20.5656C20.6938 19.7515 21.8228 19.2941 23 19.2941C24.1772 19.2941 25.3062 19.7515 26.1386 20.5656C26.971 21.3797 27.4386 22.4839 27.4386 23.6353C27.4386 24.7866 26.971 25.8908 26.1386 26.705C25.3062 27.5191 24.1772 27.9765 23 27.9765ZM23 27.9765C24.7658 27.9765 26.4592 28.6625 27.7078 29.8837C28.9564 31.1049 29.6579 32.7612 29.6579 34.4882V41H16.3421V34.4882C16.3421 32.7612 17.0436 31.1049 18.2922 29.8837C19.5408 28.6625 21.2342 27.9765 23 27.9765Z" fill="white"/>
<path fill-rule="evenodd" clip-rule="evenodd" d="M19.9777 8.79135L20.9351 7.83823L23 9.8968L25.0655 7.83823L26.0216 8.79135L23.9567 10.8506L26.0263 12.9139L25.0703 13.8676L23 11.8037L20.9304 13.8676L19.9737 12.9139L22.044 10.8506L19.9777 8.79135Z" fill="#0A0B0D"/>
</svg>
