<svg width="130" height="130" viewBox="0 0 130 130" fill="none" xmlns="http://www.w3.org/2000/svg">
<path d="M65 0L0 21.6667V65C0 82.2391 6.84819 98.7721 19.0381 110.962C31.2279 123.152 47.7609 130 65 130C82.2391 130 98.7721 123.152 110.962 110.962C123.152 98.7721 130 82.2391 130 65V21.6667L65 0Z" fill="#CED2DB"/>
<path d="M65 0L0 21.6667V65H65V0Z" fill="#FEFFFF"/>
<path d="M111.042 64.9999C111.042 52.7889 106.192 41.078 97.557 32.4435C88.9225 23.8091 77.2117 18.9583 65.0006 18.9583C52.7896 18.9583 41.0788 23.8091 32.4443 32.4435C23.8098 41.078 18.959 52.7889 18.959 64.9999C18.959 77.2109 23.8098 88.9218 32.4443 97.5563C41.0788 106.191 52.7896 111.042 65.0006 111.042C77.2117 111.042 88.9225 106.191 97.557 97.5563C106.192 88.9218 111.042 77.2109 111.042 64.9999Z" fill="#FEFFFF"/>
<path d="M65.0006 111.042C77.2117 111.042 88.9225 106.191 97.557 97.5563C106.192 88.9218 111.042 77.2109 111.042 64.9999L65 65L65.0006 111.042Z" fill="#FEFFFF"/>
<path d="M111.042 64.9999C111.042 77.2109 106.192 88.9218 97.557 97.5563C88.9225 106.191 77.2117 111.042 65.0006 111.042L65 130C82.2391 130 98.7721 123.152 110.962 110.962C123.152 98.7721 130 82.2391 130 65L111.042 64.9999Z" fill="#101114"/>
<path d="M65.0006 18.9583C52.7896 18.9583 41.0788 23.8091 32.4443 32.4435C23.8098 41.078 18.959 52.7889 18.959 64.9999L65 65L65.0006 18.9583Z" fill="#CED2DB"/>
<path d="M65 31.1458C59.3625 31.1431 53.8136 32.5482 48.8567 35.2335C43.8999 37.9189 39.692 41.7994 36.615 46.5231C33.538 51.2468 31.6892 56.6641 31.2364 62.2834C30.7836 67.9026 31.7411 73.546 34.0221 78.7015C36.3038 83.8565 39.8367 88.3601 44.3002 91.8036C48.7637 95.2471 54.0165 97.5215 59.5818 98.4203C65.1471 99.3191 70.8487 98.8139 76.1693 96.9506C81.4899 95.0872 86.2609 91.9247 90.0494 87.75C91.5293 86.1592 92.8365 84.4161 93.9494 82.55C94.5181 81.6292 95.0327 80.6542 95.5202 79.6792C97.9963 74.5166 99.1237 68.8107 98.7971 63.0943C98.4705 57.378 96.7005 51.8377 93.6525 46.9907C90.6045 42.1437 86.3778 38.1483 81.3673 35.3774C76.3567 32.6066 70.7257 31.1507 65 31.1458Z" fill="#CED2DB"/>
<path d="M31.1465 64.9999L65 65V31.1458C56.0213 31.1458 47.411 34.7125 41.0621 41.0614C34.7132 47.4103 31.1465 56.0212 31.1465 64.9999Z" fill="#FEFFFF"/>
<path d="M61.7164 46H68.7015V85H61.7164V46Z" fill="#101114"/>
<path d="M46 68.7015V61.7164H85V68.7015H46Z" fill="#101114"/>
</svg>
