<svg width="50" height="50" viewBox="0 0 50 50" fill="none" xmlns="http://www.w3.org/2000/svg">
<path d="M25.0047 0C11.2116 0 0 11.2099 0 24.993C0 38.7761 11.2116 50 25.0047 50C38.7884 50 50 38.7808 50 24.9977C50 11.2146 38.7884 0 25.0047 0ZM25.0047 8.4308C28.0407 8.4308 30.8939 9.25423 33.3396 10.6952L10.7009 33.3255C9.26724 30.874 8.44265 28.0247 8.44265 24.993C8.43797 15.8604 15.8686 8.4308 25.0047 8.4308ZM25.0047 41.5645C21.964 41.5645 19.1154 40.7411 16.6604 39.3001L39.3085 16.6558C40.7421 19.1073 41.562 21.9566 41.562 24.993C41.562 34.1303 34.1314 41.5645 25.0047 41.5645Z" fill="#FD4F50"/>
</svg>
