<svg width="35" height="35" viewBox="0 0 35 35" fill="none" xmlns="http://www.w3.org/2000/svg">
<path d="M12.8643 2.20542L2.20657 12.8632L21.4666 32.1232L32.1243 21.4655L12.8643 2.20542Z" fill="#BFC4CF"/>
<path d="M34.3334 0H25.7844L0 34.3333H8.54901L34.3334 0Z" fill="#FD4F50"/>
<path d="M7.53619 15.0723C11.6983 15.0723 15.0724 11.6983 15.0724 7.53619C15.0724 3.37405 11.6983 0 7.53619 0C3.37411 0 0 3.37405 0 7.53619C0 11.6983 3.37411 15.0723 7.53619 15.0723Z" fill="#0A0B0D"/>
<path d="M12.8695 2.20895C9.92825 -0.732261 5.15587 -0.732261 2.20895 2.20895C-0.732262 5.15016 -0.732262 9.92254 2.20895 12.8695L12.8695 2.20895Z" fill="#FD4F50"/>
<path d="M26.7969 34.3334C30.9591 34.3334 34.3331 30.9594 34.3331 26.7973C34.3331 22.6351 30.9591 19.2611 26.7969 19.2611C22.6348 19.2611 19.2608 22.6351 19.2608 26.7973C19.2608 30.9594 22.6348 34.3334 26.7969 34.3334Z" fill="#0A0B0D"/>
<path d="M21.4639 32.1247C24.4052 35.0659 29.1775 35.0659 32.1244 32.1247C35.0657 29.1834 35.0657 24.4111 32.1244 21.4642L21.4639 32.1247Z" fill="#FD4F50"/>
<path d="M24.1821 13.5217L15.038 25.6928L10.1569 20.8118L19.2953 8.63488L24.1821 13.5217Z" fill="#0A0B0D"/>
<path d="M24.1821 13.5217L15.038 25.6928L10.1569 20.8118L19.2953 8.63488L24.1821 13.5217Z" fill="#0A0B0D"/>
</svg>
