<svg width="20" height="20" viewBox="0 0 20 20" fill="none" xmlns="http://www.w3.org/2000/svg">
<path d="M10.0045 4.05566e-06C11.3181 3.10942e-06 12.6189 0.259055 13.8324 0.762347C15.0459 1.26564 16.1483 2.0033 17.0766 2.93315C18.0049 3.86299 18.741 4.96679 19.2426 6.18142C19.7442 7.39604 20.0016 8.69768 20 10.0119C19.976 15.5538 15.48 20.0358 9.9865 19.9998C7.33553 19.9974 4.79409 18.9416 2.92126 17.0645C1.04842 15.1875 -0.00238182 12.643 4.05401e-06 9.99089C0.00238993 7.33876 1.05777 4.7962 2.93398 2.92254C4.81018 1.04888 7.35353 -0.00238283 10.0045 4.05566e-06ZM12.3374 8.02192H7.67954C7.45813 9.33261 7.45813 10.6712 7.67954 11.9819H12.3354C12.5497 10.6706 12.5504 9.33336 12.3374 8.02192ZM5.63446 8.02192C5.5929 8.01238 5.55086 8.00504 5.50852 7.99992C4.48698 7.99992 3.46344 7.99992 2.4419 7.99992C2.41418 7.99741 2.38624 8.00072 2.35987 8.00965C2.3335 8.01857 2.30928 8.0329 2.28876 8.05173C2.26825 8.07056 2.2519 8.09346 2.24074 8.11898C2.22959 8.1445 2.22389 8.17206 2.224 8.19991C1.94689 9.37652 1.94142 10.6008 2.20801 11.7799C2.20908 11.8148 2.21793 11.849 2.23392 11.88C2.24992 11.911 2.27264 11.938 2.30043 11.9591C2.32822 11.9802 2.36038 11.9948 2.39454 12.0019C2.4287 12.0089 2.46401 12.0082 2.49788 11.9999C3.46544 11.9999 4.43301 11.9999 5.40057 11.9999C5.47454 11.9999 5.5505 11.9999 5.64046 11.9859C5.46389 10.6706 5.46188 9.33773 5.63446 8.02192ZM14.3685 8.02192C14.5488 9.3344 14.5488 10.6654 14.3685 11.9779C14.412 11.9873 14.4561 11.994 14.5005 11.9979C15.522 11.9979 16.5436 11.9979 17.5651 11.9979C17.5928 12.0004 17.6208 11.9971 17.6471 11.9881C17.6735 11.9792 17.6977 11.9649 17.7182 11.9461C17.7387 11.9272 17.7551 11.9043 17.7663 11.8788C17.7774 11.8533 17.7831 11.8257 17.783 11.7979C18.0603 10.6139 18.0603 9.38187 17.783 8.19791C17.7803 8.16604 17.7709 8.1351 17.7553 8.10719C17.7397 8.07927 17.7183 8.05502 17.6925 8.03607C17.6667 8.01713 17.6372 8.00392 17.6059 7.99733C17.5747 7.99075 17.5423 7.99095 17.5111 7.99792C16.5356 7.99792 15.562 7.99792 14.5864 7.99792C14.5225 7.99992 14.4545 8.01392 14.3685 8.01992V8.02192ZM8.11135 5.97594H11.9096C11.4884 4.5732 10.8452 3.24707 10.0045 2.04798C9.16885 3.24835 8.52978 4.57431 8.11135 5.97594ZM8.11135 14.0139C8.53169 15.4185 9.17057 16.7481 10.0045 17.9538C10.8377 16.7484 11.4765 15.4195 11.8976 14.0159H8.09935L8.11135 14.0139ZM16.8954 5.99994C16.1617 4.52795 13.7568 2.56798 12.6353 2.50998C13.1912 3.5743 13.6308 4.69542 13.9467 5.85394C13.9681 5.89266 13.9986 5.92561 14.0355 5.94999C14.0724 5.97437 14.1146 5.98945 14.1586 5.99394C14.7584 6.00594 15.3581 5.99394 15.9578 5.99394H16.8954V5.99994ZM7.35169 2.46198C5.57315 3.09353 4.07351 4.33115 3.1156 5.95794C3.13655 5.9724 3.15943 5.98384 3.18357 5.99194C4.08716 5.99194 4.98276 5.99194 5.89635 5.99194C5.93561 5.98015 5.97159 5.95937 6.00143 5.93126C6.03128 5.90314 6.05416 5.86845 6.06827 5.82994C6.23619 5.33595 6.36614 4.82995 6.55405 4.34596C6.78995 3.72796 7.06582 3.12797 7.35169 2.46198ZM3.1196 13.9999C3.72932 15.3718 6.25818 17.4458 7.35769 17.4838C7.31971 17.4078 7.28372 17.3398 7.25573 17.2698C6.90389 16.3998 6.55405 15.5118 6.20621 14.6298C6.13024 14.4298 6.13424 14.1518 6.0063 14.0538C5.87836 13.9559 5.58449 13.9999 5.36858 13.9999C4.62892 13.9999 3.88925 13.9999 3.1196 13.9999ZM12.6193 17.5478C14.4186 16.9144 15.9369 15.6666 16.9074 14.0239C16.8598 14.0146 16.8118 14.0079 16.7635 14.0038C15.8898 14.0038 15.0162 14.0038 14.1426 14.0038C14.1164 14.0019 14.09 14.0053 14.065 14.0136C14.04 14.0219 14.0169 14.0351 13.997 14.0524C13.9772 14.0697 13.9609 14.0907 13.9492 14.1143C13.9375 14.1379 13.9305 14.1636 13.9287 14.1898C13.6329 15.0338 13.329 15.8758 13.0191 16.7118C12.9172 16.9818 12.7693 17.2378 12.6193 17.5478Z" fill="#1A1D20"/>
</svg>
