<svg width="77" height="61" viewBox="0 0 77 61" fill="none" xmlns="http://www.w3.org/2000/svg">
<path fill-rule="evenodd" clip-rule="evenodd" d="M76.06 47.0542C76.6617 46.4544 76.9998 45.6407 77 44.7922V3.19945C77 2.3509 76.662 1.53711 76.0603 0.937097C75.4586 0.337084 74.6426 0 73.7917 0H3.20833C2.35743 0 1.54138 0.337084 0.939699 0.937097C0.33802 1.53711 0 2.3509 0 3.19945V44.7922C0 45.6408 0.33802 46.4546 0.939699 47.0546C1.54138 47.6546 2.35743 47.9917 3.20833 47.9917H33.3667V55.6704C33.3667 56.1795 33.1639 56.6678 32.8028 57.0278C32.4418 57.3878 31.9522 57.59 31.4417 57.59H23.1V60.7895H53.9V57.59H45.5583C45.0478 57.59 44.5582 57.3878 44.1972 57.0278C43.8361 56.6678 43.6333 56.1795 43.6333 55.6704V47.9917H73.7917C74.6425 47.9915 75.4584 47.6543 76.06 47.0542Z" fill="#CED2DB"/>
<path d="M72.9475 3.03955H4.05273V40.5264H72.9475V3.03955Z" fill="#FEFFFF"/>
<path d="M37 34.0156C36.996 34.2584 36.859 34.4905 36.6182 34.6621C36.3774 34.8338 36.0519 34.9315 35.7114 34.9344L11.2894 35C10.9489 34.9972 10.6234 34.8995 10.3826 34.7278C10.1418 34.5561 10.0048 34.324 10.0008 34.0812V0.951563C9.99464 0.828178 10.0234 0.70517 10.0854 0.589887C10.1474 0.474604 10.2413 0.369411 10.3616 0.280591C10.4819 0.191772 10.626 0.121147 10.7854 0.0729376C10.9448 0.0247278 11.1163 -7.85785e-05 11.2894 1.86984e-07H35.7114C36.0519 0.00284008 36.3774 0.100548 36.6182 0.272236C36.859 0.443923 36.996 0.675964 37 0.91875V34.0156Z" fill="#FD4F50"/>
<path d="M37 0H10V3H37V0Z" fill="#0A0B0D"/>
<path d="M61.5498 19.7645C61.5498 23.2605 58.6798 26.0945 55.1395 26.0945C51.5991 26.0945 48.7291 23.2605 48.7291 19.7645C48.7291 16.2686 51.5991 13.4346 55.1395 13.4346C58.6798 13.4346 61.5498 16.2686 61.5498 19.7645Z" fill="#0A0B0D"/>
<path d="M68.652 40.4791H41.6074C42.0199 33.8483 47.9163 28.5898 55.1297 28.5898C62.3431 28.5898 68.2396 33.8483 68.652 40.4791Z" fill="#0A0B0D"/>
<path d="M23.5016 11C18.8119 11 15 14.8114 15 19.4976C15 24.1839 18.8119 28 23.5016 28C28.1881 28 32 24.1855 32 19.4992C32 14.813 28.1881 11 23.5016 11ZM23.5016 13.8665C24.5338 13.8665 25.5039 14.1464 26.3355 14.6364L18.6383 22.3307C18.1509 21.4971 17.8705 20.5284 17.8705 19.4976C17.8689 16.3925 20.3953 13.8665 23.5016 13.8665ZM23.5016 25.1319C22.4678 25.1319 21.4993 24.852 20.6645 24.362L28.3649 16.663C28.8523 17.4965 29.1311 18.4652 29.1311 19.4976C29.1311 22.6043 26.6047 25.1319 23.5016 25.1319Z" fill="white"/>
</svg>
