<svg width="93" height="73" viewBox="0 0 93 73" fill="none" xmlns="http://www.w3.org/2000/svg">
<path d="M0.208498 0H0V37.3902C0 57.057 35.1315 73 35.1315 73V0H34.923C31.0922 4.97367 24.7462 8.22535 17.5658 8.22535C10.3853 8.22535 4.03928 4.97367 0.208498 0Z" fill="#1A1D20"/>
<path d="M70.1252 0H70.3337V37.3902C70.3337 57.057 35.2022 73 35.2022 73V0H35.4106C39.2414 4.97367 45.5874 8.22535 52.7679 8.22535C59.9484 8.22535 66.2944 4.97367 70.1252 0Z" fill="#CED2DB"/>
<path d="M17.6346 21.6601L20.5422 30.5644H29.9512L22.3392 36.0675L25.2467 44.9718L17.6346 39.4686L10.0226 44.9718L12.9301 36.0675L5.31804 30.5644H14.7271L17.6346 21.6601Z" fill="white"/>
<path d="M62.5241 22.7735C50.671 27.0213 44.492 39.9613 48.728 51.665C52.9641 63.3688 66.0158 69.4171 77.8689 65.1693C89.722 60.9215 95.901 47.9815 91.6649 36.2777C87.4288 24.574 74.3772 18.5257 62.5241 22.7735Z" fill="white"/>
<path d="M64.3445 27.7286C55.2675 30.9815 50.5358 40.8907 53.7797 49.8533C57.0236 58.8158 67.0183 63.4475 76.0952 60.1946C85.1721 56.9417 89.9039 47.0325 86.66 38.07C83.4161 29.1074 73.4213 24.4757 64.3445 27.7286Z" fill="#FD4F50"/>
<path fill-rule="evenodd" clip-rule="evenodd" d="M62.9618 39.1993L65.2282 36.9455L70.1162 41.8133L75.0059 36.9455L77.2691 39.1993L72.381 44.0686L77.2803 48.9475L75.0171 51.2028L70.1162 46.3223L65.217 51.2028L62.9522 48.9475L67.8531 44.0686L62.9618 39.1993Z" fill="white"/>
</svg>
