<svg width="73" height="73" viewBox="0 0 73 73" fill="none" xmlns="http://www.w3.org/2000/svg">
<path fill-rule="evenodd" clip-rule="evenodd" d="M38.0215 1.52081H28.8965V19.7708H38.0215C42.4066 19.9329 46.5682 21.7475 49.6711 24.8504C52.774 27.9532 54.5886 32.1148 54.7507 36.5C54.6294 38.8809 53.6292 41.1321 51.9435 42.8178C50.2577 44.5035 48.0065 45.5038 45.6257 45.625V63.875C52.8566 63.7805 59.7647 60.866 64.8782 55.7525C69.9916 50.639 72.9061 43.7309 73.0006 36.5C73.0006 17.8698 56.6517 1.52081 38.0215 1.52081Z" fill="#D9D9D9"/>
<path d="M28.7753 59.9809V52.9515V58.3251C32.1013 58.3324 35.3771 57.5247 38.3082 55.9745C41.2393 54.4244 43.7338 52.1804 45.5676 49.4443V38.4862C45.231 34.3366 43.3216 30.4642 40.2196 27.6403C37.1176 24.8165 33.0506 23.2484 28.8287 23.2484C24.6068 23.2484 20.5398 24.8165 17.4378 27.6403C14.3358 30.4642 12.4264 34.3366 12.0898 38.4862H28.7753V59.9809Z" fill="#1A1D20"/>
<path fill-rule="evenodd" clip-rule="evenodd" d="M28.9117 1.52087H28.9269C31.347 1.52087 33.668 2.48226 35.3792 4.19352C37.0905 5.90479 38.0519 8.22577 38.0519 10.6459C38.0519 13.066 37.0905 15.387 35.3792 17.0982C33.668 18.8095 31.347 19.7709 28.9269 19.7709H28.8965C26.4764 19.7709 24.1554 18.8095 22.4441 17.0982C20.7329 15.387 19.7715 13.066 19.7715 10.6459C19.7715 8.22577 20.7329 5.90479 22.4441 4.19352C24.1554 2.48226 26.4764 1.52087 28.8965 1.52087H28.9117Z" fill="#1A1D20"/>
<path d="M45.5669 37.3657C45.5669 37.2728 45.4915 37.1974 45.3986 37.1974H3.25478C1.45721 37.1974 0 38.6547 0 40.4522V67.8854C0 69.6829 1.45721 71.1401 3.25478 71.1401H42.3121C44.1097 71.1401 45.5669 69.6829 45.5669 67.8854V37.3657Z" fill="#FD4F50"/>
<path d="M23.0653 47.8076C23.0653 50.8273 20.5863 53.2752 17.5283 53.2752C14.4703 53.2752 11.9913 50.8273 11.9913 47.8076C11.9913 44.7879 14.4703 42.34 17.5283 42.34C20.5863 42.34 23.0653 44.7879 23.0653 47.8076Z" fill="white"/>
<path d="M29.1998 65.7H5.83984C6.19608 59.9726 11.2892 55.4305 17.5198 55.4305C23.7505 55.4305 28.8436 59.9726 29.1998 65.7Z" fill="white"/>
<path d="M45.625 63.875C43.2049 63.875 40.8839 62.9136 39.1726 61.2024C37.4614 59.4911 36.5 57.1701 36.5 54.75C36.5 52.3299 37.4614 50.0089 39.1726 48.2976C40.8839 46.5864 43.2049 45.625 45.625 45.625V63.875Z" fill="#1A1D20"/>
</svg>
