<svg width="55" height="60" viewBox="0 0 55 60" fill="none" xmlns="http://www.w3.org/2000/svg">
<path d="M34.3535 48.1295C38.9561 48.1295 42.6875 44.4319 42.6875 39.8717C42.6875 35.3116 38.9561 31.614 34.3535 31.614C29.7509 31.614 26.0195 35.3116 26.0195 39.8717C26.0195 44.4319 29.7509 48.1295 34.3535 48.1295Z" fill="#FD4F50"/>
<path d="M44.665 17.9677L43.1962 19.4227L28.457 4.83857C21.9456 -1.61286 11.3941 -1.61286 4.88266 4.83857C3.33602 6.36501 2.10797 8.18344 1.26979 10.1883C0.431616 12.1932 0 14.3446 0 16.5176C0 18.6907 0.431616 20.8421 1.26979 22.847C2.10797 24.8518 3.33602 26.6703 4.88266 28.1967L19.6131 42.7921L18.1443 44.2471C17.7581 44.6293 17.4515 45.0843 17.2423 45.5857C17.0331 46.0872 16.9253 46.6251 16.9253 47.1685C16.9253 47.7118 17.0331 48.2497 17.2423 48.7512C17.4515 49.2526 17.7581 49.7076 18.1443 50.0898L21.0918 53.0111L53.499 20.899L50.5514 17.9777C49.7698 17.2001 48.7127 16.7627 47.6103 16.7609C46.5078 16.759 45.4492 17.1927 44.665 17.9677Z" fill="#CED2DB"/>
<path d="M28.4576 34.0291C27.6853 34.7924 27.0721 35.7015 26.6535 36.7036C26.235 37.7056 26.0195 38.7808 26.0195 39.8667C26.0195 40.9527 26.235 42.0278 26.6535 43.0299C27.0721 44.032 27.6853 44.941 28.4576 45.7044L40.2392 34.0291C36.9891 30.809 31.719 30.809 28.4576 34.0291Z" fill="#0A0B0D"/>
<path d="M43.9414 47.9022L50.5665 53.0123L47.619 55.9336L42.4626 49.3685L43.9414 47.9022ZM35.6211 51.7423L36.6637 60H32.4961L33.5386 51.7423H35.6211ZM46.3489 39.0569L54.6829 38.0244V42.1533L46.3489 41.1207V39.0569Z" fill="#CED2DB"/>
</svg>
