<svg width="80" height="84" viewBox="0 0 80 84" fill="none" xmlns="http://www.w3.org/2000/svg">
<rect x="26.666" y="-6.10352e-05" width="53.3333" height="83.8095" fill="#D9D9D9"/>
<path d="M27.619 56.486C12.3595 56.486 0 66.3361 0 78.497V83.8094H55.2381V78.497C55.2381 66.3361 42.8786 56.486 27.619 56.486Z" fill="#1A1D20"/>
<path d="M26.6842 52.5346C34.3814 52.5346 40.6212 46.3615 40.6212 38.7467C40.6212 31.1319 34.3814 24.9589 26.6842 24.9589C18.9871 24.9589 12.7473 31.1319 12.7473 38.7467C12.7473 46.3615 18.9871 52.5346 26.6842 52.5346Z" fill="#FD4F50"/>
<path d="M15.9341 22.8571H37.1795L40.3663 35.4679H12.7473L15.9341 22.8571Z" fill="#1A1D20"/>
<path fill-rule="evenodd" clip-rule="evenodd" d="M23.37 41.7733H16.9963V39.6715H23.37V41.7733Z" fill="white"/>
<path fill-rule="evenodd" clip-rule="evenodd" d="M36.1172 41.7733H29.7436V39.6715H36.1172V41.7733Z" fill="white"/>
<path d="M6.37363 33.3661H46.7399V37.5697H6.37363V33.3661Z" fill="#1A1D20"/>
</svg>
