<svg width="59" height="61" viewBox="0 0 59 61" fill="none" xmlns="http://www.w3.org/2000/svg">
<path d="M0.176993 0H0V31.2439C0 47.6777 30 61 30 61V0C26.7481 4.15608 21.007 6.87324 14.9115 6.87324C8.81602 6.87324 3.42893 4.15608 0.176993 0Z" fill="#FD4F50"/>
<path d="M58.8289 0H59V31.2439C59 47.6777 30 61 30 61V0C33.1435 4.15608 38.6932 6.87324 44.5855 6.87324C50.4778 6.87324 55.6854 4.15608 58.8289 0Z" fill="#CED2DB"/>
<path d="M14.5 18L16.8574 25.6008H24.4861L18.3143 30.2984L20.6717 37.8992L14.5 33.2016L8.32825 37.8992L10.6857 30.2984L4.51391 25.6008H12.1426L14.5 18Z" fill="white"/>
<path d="M45 51.9727C52.0665 46.6143 59 39.3033 59 31.2439V0H58.8289C55.7593 4.05836 50.7216 6.74467 45 6.86876V51.9727Z" fill="#0A0B0D"/>
</svg>
