<svg width="15" height="15" viewBox="0 0 15 15" fill="none" xmlns="http://www.w3.org/2000/svg">
<path d="M7.5 15C11.6421 15 15 11.6421 15 7.5C15 3.35786 11.6421 0 7.5 0C3.35786 0 0 3.35786 0 7.5C0 11.6421 3.35786 15 7.5 15Z" fill="#E5E1FF"/>
<path fill-rule="evenodd" clip-rule="evenodd" d="M9.20508 11.2329L9.07617 11.7603C8.68945 11.9126 8.38086 12.0288 8.15039 12.1089C7.91992 12.189 7.65235 12.229 7.34766 12.229C6.8789 12.229 6.51465 12.1147 6.25488 11.8862C5.99512 11.6577 5.86523 11.3677 5.86523 11.0161C5.86523 10.8794 5.875 10.7397 5.89453 10.5972C5.91406 10.4546 5.94531 10.2935 5.98828 10.1138L6.46875 8.40283C6.51172 8.23877 6.54785 8.0835 6.57715 7.93701C6.60645 7.79053 6.62109 7.65674 6.62109 7.53564C6.62109 7.31689 6.57617 7.16455 6.48633 7.07861C6.39648 6.99268 6.22461 6.94971 5.9707 6.94971C5.8457 6.94971 5.71777 6.96924 5.58691 7.0083C5.45605 7.04736 5.34375 7.08447 5.25 7.11963L5.37891 6.59229C5.69531 6.46338 5.99805 6.35303 6.28711 6.26123C6.57617 6.16943 6.84961 6.12354 7.10742 6.12354C7.57227 6.12354 7.93066 6.23584 8.18262 6.46045C8.43457 6.68506 8.56055 6.97705 8.56055 7.33643C8.56055 7.41065 8.55176 7.5415 8.53418 7.729C8.5166 7.9165 8.48438 8.08838 8.4375 8.24463L7.95703 9.94971C7.91797 10.0864 7.88281 10.2427 7.85156 10.4185C7.82031 10.5942 7.80469 10.7271 7.80469 10.8169C7.80469 11.0435 7.85547 11.1978 7.95703 11.2798C8.05859 11.3618 8.23437 11.4028 8.48438 11.4028C8.60156 11.4028 8.73437 11.3823 8.88281 11.3413C9.03125 11.3003 9.13867 11.2642 9.20508 11.2329ZM9.32812 4.07861C9.32812 4.37549 9.21582 4.62842 8.99121 4.8374C8.7666 5.04639 8.4961 5.15088 8.17969 5.15088C7.86328 5.15088 7.5918 5.04639 7.36523 4.8374C7.13867 4.62842 7.02539 4.37549 7.02539 4.07861C7.02539 3.78174 7.13867 3.52783 7.36523 3.31689C7.5918 3.10596 7.86328 3.00049 8.17969 3.00049C8.4961 3.00049 8.7666 3.10596 8.99121 3.31689C9.21582 3.52783 9.32812 3.78174 9.32812 4.07861Z" fill="#10007A"/>
</svg>
