<svg width="191" height="30" viewBox="0 0 191 30" fill="none" xmlns="http://www.w3.org/2000/svg">
<path d="M15.0028 0C6.72695 0 0 6.72593 0 14.9958C0 23.2657 6.72695 30 15.0028 30C23.2731 30 30 23.2685 30 14.9986C30 6.72873 23.2731 0 15.0028 0ZM15.0028 5.05848C16.8244 5.05848 18.5364 5.55254 20.0037 6.41714L6.42054 19.9953C5.56035 18.5244 5.06559 16.8148 5.06559 14.9958C5.06278 9.51624 9.52118 5.05848 15.0028 5.05848ZM15.0028 24.9387C13.1784 24.9387 11.4693 24.4447 9.99625 23.5801L23.5851 9.99345C24.4453 11.4644 24.9372 13.174 24.9372 14.9958C24.9372 20.4782 20.4788 24.9387 15.0028 24.9387Z" fill="#FD4F50"/>
<path d="M38.44 24V7.2H44.008C45.168 7.2 46.252 7.42 47.26 7.86C48.276 8.292 49.168 8.896 49.936 9.672C50.712 10.44 51.316 11.332 51.748 12.348C52.188 13.356 52.408 14.44 52.408 15.6C52.408 16.76 52.188 17.848 51.748 18.864C51.316 19.872 50.712 20.764 49.936 21.54C49.168 22.308 48.276 22.912 47.26 23.352C46.252 23.784 45.168 24 44.008 24H38.44ZM42.04 20.4H44.008C44.656 20.4 45.268 20.276 45.844 20.028C46.42 19.78 46.932 19.436 47.38 18.996C47.828 18.556 48.176 18.048 48.424 17.472C48.68 16.888 48.808 16.264 48.808 15.6C48.808 14.936 48.68 14.316 48.424 13.74C48.176 13.164 47.828 12.656 47.38 12.216C46.94 11.768 46.432 11.42 45.856 11.172C45.28 10.924 44.664 10.8 44.008 10.8H42.04V20.4Z" fill="#1A1D20"/>
<path d="M59.3528 24.312C58.2488 24.312 57.2408 24.028 56.3288 23.46C55.4248 22.892 54.7008 22.132 54.1568 21.18C53.6208 20.22 53.3528 19.16 53.3528 18C53.3528 17.12 53.5088 16.3 53.8208 15.54C54.1328 14.772 54.5608 14.1 55.1048 13.524C55.6568 12.94 56.2968 12.484 57.0248 12.156C57.7528 11.828 58.5288 11.664 59.3528 11.664C60.4568 11.664 61.4608 11.948 62.3648 12.516C63.2768 13.084 64.0008 13.848 64.5368 14.808C65.0808 15.768 65.3528 16.832 65.3528 18C65.3528 18.872 65.1968 19.688 64.8848 20.448C64.5728 21.208 64.1408 21.88 63.5888 22.464C63.0448 23.04 62.4088 23.492 61.6808 23.82C60.9608 24.148 60.1848 24.312 59.3528 24.312ZM59.3528 20.712C59.8088 20.712 60.2168 20.588 60.5768 20.34C60.9448 20.092 61.2328 19.764 61.4408 19.356C61.6488 18.94 61.7528 18.488 61.7528 18C61.7528 17.496 61.6408 17.036 61.4168 16.62C61.2008 16.204 60.9088 15.876 60.5408 15.636C60.1808 15.388 59.7848 15.264 59.3528 15.264C58.9048 15.264 58.4968 15.392 58.1288 15.648C57.7688 15.896 57.4808 16.228 57.2648 16.644C57.0568 17.06 56.9528 17.512 56.9528 18C56.9528 18.512 57.0608 18.972 57.2768 19.38C57.5008 19.788 57.7928 20.112 58.1528 20.352C58.5208 20.592 58.9208 20.712 59.3528 20.712Z" fill="#1A1D20"/>
<path d="M66.8931 24V6H70.4931V24H66.8931Z" fill="#1A1D20"/>
<path d="M81.7441 6H85.3441V24H81.7441V22.896C81.3761 23.312 80.9361 23.652 80.4241 23.916C79.9201 24.18 79.3441 24.312 78.6961 24.312C77.8241 24.312 77.0081 24.148 76.2481 23.82C75.4881 23.492 74.8161 23.04 74.2321 22.464C73.6561 21.88 73.2041 21.208 72.8761 20.448C72.5481 19.688 72.3841 18.872 72.3841 18C72.3841 17.128 72.5481 16.312 72.8761 15.552C73.2041 14.792 73.6561 14.124 74.2321 13.548C74.8161 12.964 75.4881 12.508 76.2481 12.18C77.0081 11.852 77.8241 11.688 78.6961 11.688C79.3441 11.688 79.9201 11.82 80.4241 12.084C80.9361 12.34 81.3761 12.68 81.7441 13.104V6ZM78.7441 20.856C79.2401 20.856 79.6921 20.728 80.1001 20.472C80.5081 20.216 80.8321 19.872 81.0721 19.44C81.3121 19.008 81.4321 18.528 81.4321 18C81.4321 17.472 81.3121 16.992 81.0721 16.56C80.8321 16.128 80.5081 15.784 80.1001 15.528C79.6921 15.272 79.2401 15.144 78.7441 15.144C78.2481 15.144 77.7961 15.272 77.3881 15.528C76.9881 15.784 76.6681 16.128 76.4281 16.56C76.1961 16.992 76.0801 17.472 76.0801 18C76.0801 18.528 76.2001 19.008 76.4401 19.44C76.6801 19.872 77.0001 20.216 77.4001 20.472C77.8081 20.728 78.2561 20.856 78.7441 20.856Z" fill="#1A1D20"/>
<path d="M93.8372 7.2H97.8932L103.989 24H100.173L99.2132 21.36H92.5173L91.5573 24H87.7412L93.8372 7.2ZM93.8372 17.76H97.8932L95.8532 12.192L93.8372 17.76Z" fill="#1A1D20"/>
<path d="M113.83 6H117.43V24H113.83V22.896C113.462 23.312 113.022 23.652 112.51 23.916C112.006 24.18 111.43 24.312 110.782 24.312C109.91 24.312 109.094 24.148 108.334 23.82C107.574 23.492 106.902 23.04 106.318 22.464C105.742 21.88 105.29 21.208 104.962 20.448C104.634 19.688 104.47 18.872 104.47 18C104.47 17.128 104.634 16.312 104.962 15.552C105.29 14.792 105.742 14.124 106.318 13.548C106.902 12.964 107.574 12.508 108.334 12.18C109.094 11.852 109.91 11.688 110.782 11.688C111.43 11.688 112.006 11.82 112.51 12.084C113.022 12.34 113.462 12.68 113.83 13.104V6ZM110.83 20.856C111.326 20.856 111.778 20.728 112.186 20.472C112.594 20.216 112.918 19.872 113.158 19.44C113.398 19.008 113.518 18.528 113.518 18C113.518 17.472 113.398 16.992 113.158 16.56C112.918 16.128 112.594 15.784 112.186 15.528C111.778 15.272 111.326 15.144 110.83 15.144C110.334 15.144 109.882 15.272 109.474 15.528C109.074 15.784 108.754 16.128 108.514 16.56C108.282 16.992 108.166 17.472 108.166 18C108.166 18.528 108.286 19.008 108.526 19.44C108.766 19.872 109.086 20.216 109.486 20.472C109.894 20.728 110.342 20.856 110.83 20.856Z" fill="#1A1D20"/>
<path d="M120.319 24L120.307 12H123.907L123.919 12.756C124.319 12.412 124.775 12.144 125.287 11.952C125.799 11.76 126.339 11.664 126.907 11.664C127.339 11.664 127.779 11.728 128.227 11.856L126.811 15.504C126.531 15.376 126.243 15.312 125.947 15.312C125.571 15.312 125.227 15.404 124.915 15.588C124.611 15.764 124.367 16.008 124.183 16.32C124.007 16.624 123.919 16.964 123.919 17.34V24H120.319Z" fill="#1A1D20"/>
<path d="M134.236 24.312C133.132 24.312 132.124 24.028 131.212 23.46C130.308 22.892 129.584 22.128 129.04 21.168C128.504 20.208 128.236 19.148 128.236 17.988C128.236 17.116 128.392 16.3 128.704 15.54C129.016 14.772 129.444 14.1 129.988 13.524C130.54 12.94 131.18 12.484 131.908 12.156C132.636 11.828 133.412 11.664 134.236 11.664C135.196 11.664 136.072 11.876 136.864 12.3C137.664 12.716 138.336 13.284 138.88 14.004C139.432 14.716 139.824 15.52 140.056 16.416C140.288 17.312 140.312 18.236 140.128 19.188H132.124C132.236 19.468 132.384 19.724 132.568 19.956C132.76 20.18 132.992 20.36 133.264 20.496C133.544 20.632 133.868 20.704 134.236 20.712C134.588 20.72 134.912 20.644 135.208 20.484C135.512 20.324 135.776 20.108 136 19.836L139.672 20.688C139.184 21.752 138.456 22.624 137.488 23.304C136.52 23.976 135.436 24.312 134.236 24.312ZM131.992 16.548H136.492C136.38 16.204 136.212 15.9 135.988 15.636C135.764 15.372 135.5 15.164 135.196 15.012C134.9 14.86 134.58 14.784 134.236 14.784C133.9 14.784 133.58 14.86 133.276 15.012C132.98 15.164 132.72 15.372 132.496 15.636C132.28 15.9 132.112 16.204 131.992 16.548Z" fill="#1A1D20"/>
<path d="M145.583 24.216C144.975 24.16 144.391 24.028 143.831 23.82C143.271 23.612 142.771 23.328 142.331 22.968C141.891 22.608 141.544 22.168 141.288 21.648L144.311 20.352C144.391 20.44 144.504 20.552 144.648 20.688C144.792 20.816 144.971 20.932 145.188 21.036C145.411 21.14 145.68 21.192 145.992 21.192C146.199 21.192 146.4 21.172 146.592 21.132C146.792 21.084 146.952 21.004 147.072 20.892C147.2 20.78 147.264 20.624 147.264 20.424C147.264 20.2 147.18 20.032 147.012 19.92C146.852 19.8 146.656 19.716 146.424 19.668C146.192 19.612 145.975 19.568 145.775 19.536C145.063 19.424 144.38 19.2 143.723 18.864C143.076 18.52 142.544 18.076 142.128 17.532C141.712 16.98 141.503 16.336 141.503 15.6C141.503 14.776 141.715 14.064 142.139 13.464C142.563 12.864 143.116 12.404 143.796 12.084C144.484 11.756 145.223 11.592 146.016 11.592C146.952 11.592 147.815 11.784 148.607 12.168C149.408 12.552 150.064 13.104 150.576 13.824L147.743 15.504C147.648 15.384 147.527 15.264 147.383 15.144C147.247 15.016 147.088 14.908 146.904 14.82C146.728 14.724 146.535 14.664 146.327 14.64C146.048 14.616 145.796 14.628 145.572 14.676C145.355 14.716 145.184 14.804 145.055 14.94C144.927 15.068 144.863 15.256 144.863 15.504C144.863 15.736 144.975 15.904 145.199 16.008C145.423 16.112 145.676 16.188 145.956 16.236C146.236 16.284 146.464 16.336 146.639 16.392C147.327 16.616 147.975 16.908 148.583 17.268C149.191 17.628 149.68 18.064 150.048 18.576C150.424 19.088 150.6 19.688 150.576 20.376C150.576 21.176 150.335 21.88 149.855 22.488C149.376 23.096 148.755 23.556 147.995 23.868C147.236 24.18 146.432 24.296 145.583 24.216Z" fill="#1A1D20"/>
<path d="M156.06 24.216C155.452 24.16 154.868 24.028 154.308 23.82C153.748 23.612 153.248 23.328 152.808 22.968C152.368 22.608 152.02 22.168 151.764 21.648L154.788 20.352C154.868 20.44 154.98 20.552 155.124 20.688C155.268 20.816 155.448 20.932 155.664 21.036C155.888 21.14 156.156 21.192 156.468 21.192C156.676 21.192 156.876 21.172 157.068 21.132C157.268 21.084 157.428 21.004 157.548 20.892C157.676 20.78 157.74 20.624 157.74 20.424C157.74 20.2 157.656 20.032 157.488 19.92C157.328 19.8 157.132 19.716 156.9 19.668C156.668 19.612 156.452 19.568 156.252 19.536C155.54 19.424 154.856 19.2 154.2 18.864C153.552 18.52 153.02 18.076 152.604 17.532C152.188 16.98 151.98 16.336 151.98 15.6C151.98 14.776 152.192 14.064 152.616 13.464C153.04 12.864 153.592 12.404 154.272 12.084C154.96 11.756 155.7 11.592 156.492 11.592C157.428 11.592 158.292 11.784 159.084 12.168C159.884 12.552 160.54 13.104 161.052 13.824L158.22 15.504C158.124 15.384 158.004 15.264 157.86 15.144C157.724 15.016 157.564 14.908 157.38 14.82C157.204 14.724 157.012 14.664 156.804 14.64C156.524 14.616 156.272 14.628 156.048 14.676C155.832 14.716 155.66 14.804 155.532 14.94C155.404 15.068 155.34 15.256 155.34 15.504C155.34 15.736 155.452 15.904 155.676 16.008C155.9 16.112 156.152 16.188 156.432 16.236C156.712 16.284 156.94 16.336 157.116 16.392C157.804 16.616 158.452 16.908 159.06 17.268C159.668 17.628 160.156 18.064 160.524 18.576C160.9 19.088 161.076 19.688 161.052 20.376C161.052 21.176 160.812 21.88 160.332 22.488C159.852 23.096 159.232 23.556 158.472 23.868C157.712 24.18 156.908 24.296 156.06 24.216Z" fill="#1A1D20"/>
<path d="M164.26 24.312C163.756 24.312 163.328 24.14 162.976 23.796C162.632 23.444 162.46 23.016 162.46 22.512C162.46 22.016 162.632 21.592 162.976 21.24C163.328 20.888 163.756 20.712 164.26 20.712C164.756 20.712 165.18 20.888 165.532 21.24C165.884 21.592 166.06 22.016 166.06 22.512C166.06 23.016 165.884 23.444 165.532 23.796C165.18 24.14 164.756 24.312 164.26 24.312Z" fill="#1A1D20"/>
<path d="M172.396 24.216C171.788 24.16 171.204 24.028 170.644 23.82C170.084 23.612 169.584 23.328 169.144 22.968C168.704 22.608 168.356 22.168 168.1 21.648L171.124 20.352C171.204 20.44 171.316 20.552 171.46 20.688C171.604 20.816 171.784 20.932 172 21.036C172.224 21.14 172.492 21.192 172.804 21.192C173.012 21.192 173.212 21.172 173.404 21.132C173.604 21.084 173.764 21.004 173.884 20.892C174.012 20.78 174.076 20.624 174.076 20.424C174.076 20.2 173.992 20.032 173.824 19.92C173.664 19.8 173.468 19.716 173.236 19.668C173.004 19.612 172.788 19.568 172.588 19.536C171.876 19.424 171.192 19.2 170.536 18.864C169.888 18.52 169.356 18.076 168.94 17.532C168.524 16.98 168.316 16.336 168.316 15.6C168.316 14.776 168.528 14.064 168.952 13.464C169.376 12.864 169.928 12.404 170.608 12.084C171.296 11.756 172.036 11.592 172.828 11.592C173.764 11.592 174.628 11.784 175.42 12.168C176.22 12.552 176.876 13.104 177.388 13.824L174.556 15.504C174.46 15.384 174.34 15.264 174.196 15.144C174.06 15.016 173.9 14.908 173.716 14.82C173.54 14.724 173.348 14.664 173.14 14.64C172.86 14.616 172.608 14.628 172.384 14.676C172.168 14.716 171.996 14.804 171.868 14.94C171.74 15.068 171.676 15.256 171.676 15.504C171.676 15.736 171.788 15.904 172.012 16.008C172.236 16.112 172.488 16.188 172.768 16.236C173.048 16.284 173.276 16.336 173.452 16.392C174.14 16.616 174.788 16.908 175.396 17.268C176.004 17.628 176.492 18.064 176.86 18.576C177.236 19.088 177.412 19.688 177.388 20.376C177.388 21.176 177.148 21.88 176.668 22.488C176.188 23.096 175.568 23.556 174.808 23.868C174.048 24.18 173.244 24.296 172.396 24.216Z" fill="#1A1D20"/>
<path d="M184.439 24.312C183.335 24.312 182.327 24.028 181.415 23.46C180.511 22.892 179.787 22.128 179.243 21.168C178.707 20.208 178.439 19.148 178.439 17.988C178.439 17.116 178.595 16.3 178.907 15.54C179.219 14.772 179.647 14.1 180.191 13.524C180.743 12.94 181.383 12.484 182.111 12.156C182.839 11.828 183.615 11.664 184.439 11.664C185.399 11.664 186.275 11.876 187.067 12.3C187.867 12.716 188.539 13.284 189.083 14.004C189.635 14.716 190.027 15.52 190.259 16.416C190.491 17.312 190.515 18.236 190.331 19.188H182.327C182.439 19.468 182.587 19.724 182.771 19.956C182.963 20.18 183.195 20.36 183.467 20.496C183.747 20.632 184.071 20.704 184.439 20.712C184.791 20.72 185.115 20.644 185.411 20.484C185.715 20.324 185.979 20.108 186.203 19.836L189.875 20.688C189.387 21.752 188.659 22.624 187.691 23.304C186.723 23.976 185.639 24.312 184.439 24.312ZM182.195 16.548H186.695C186.583 16.204 186.415 15.9 186.191 15.636C185.967 15.372 185.703 15.164 185.399 15.012C185.103 14.86 184.783 14.784 184.439 14.784C184.103 14.784 183.783 14.86 183.479 15.012C183.183 15.164 182.923 15.372 182.699 15.636C182.483 15.9 182.315 16.204 182.195 16.548Z" fill="#1A1D20"/>
</svg>
