<svg width="50" height="50" viewBox="0 0 50 50" fill="none" xmlns="http://www.w3.org/2000/svg">
<path fill-rule="evenodd" clip-rule="evenodd" d="M26.041 1.0415H19.791V13.5415H26.041C29.0445 13.6525 31.8949 14.8954 34.0202 17.0206C36.1455 19.1459 37.3883 21.9963 37.4993 24.9998C37.4163 26.6306 36.7312 28.1725 35.5766 29.3271C34.422 30.4817 32.8801 31.1668 31.2493 31.2498V43.7498C36.202 43.6851 40.9336 41.6889 44.436 38.1865C47.9384 34.6841 49.9346 29.9525 49.9993 24.9998C49.9993 12.2394 38.8014 1.0415 26.041 1.0415Z" fill="#D9D9D9"/>
<path d="M19.7077 41.0826V36.2679V39.9485C21.9858 39.9535 24.2295 39.4002 26.2371 38.3385C28.2447 37.2767 29.9532 35.7398 31.2092 33.8657V26.3602C30.9787 23.518 29.6709 20.8656 27.5462 18.9315C25.4216 16.9974 22.636 15.9233 19.7443 15.9233C16.8526 15.9233 14.067 16.9974 11.9423 18.9315C9.81762 20.8656 8.50979 23.518 8.2793 26.3602H19.7077V41.0826Z" fill="#1A1D20"/>
<path fill-rule="evenodd" clip-rule="evenodd" d="M19.8014 1.0415H19.8118C21.4695 1.0415 23.0592 1.69998 24.2313 2.87209C25.4034 4.04419 26.0618 5.6339 26.0618 7.2915C26.0618 8.94911 25.4034 10.5388 24.2313 11.7109C23.0592 12.883 21.4695 13.5415 19.8118 13.5415H19.791C18.1334 13.5415 16.5437 12.883 15.3716 11.7109C14.1995 10.5388 13.541 8.94911 13.541 7.2915C13.541 5.6339 14.1995 4.04419 15.3716 2.87209C16.5437 1.69998 18.1334 1.0415 19.791 1.0415H19.8014Z" fill="#1A1D20"/>
<path d="M31.2102 25.5928C31.2102 25.5291 31.1586 25.4775 31.0949 25.4775H2.2293C0.998092 25.4775 0 26.4756 0 27.7068V46.4967C0 47.7279 0.998092 48.726 2.2293 48.726H28.9809C30.2121 48.726 31.2102 47.7279 31.2102 46.4967V25.5928Z" fill="#FD4F50"/>
<path d="M15.7982 32.7449C15.7982 34.8132 14.1003 36.4898 12.0058 36.4898C9.91125 36.4898 8.21331 34.8132 8.21331 32.7449C8.21331 30.6767 9.91125 29 12.0058 29C14.1003 29 15.7982 30.6767 15.7982 32.7449Z" fill="white"/>
<path d="M20 45H4C4.244 41.0771 7.73244 37.9661 12 37.9661C16.2676 37.9661 19.756 41.0771 20 45Z" fill="white"/>
<path d="M31.25 43.75C29.5924 43.75 28.0027 43.0915 26.8306 41.9194C25.6585 40.7473 25 39.1576 25 37.5C25 35.8424 25.6585 34.2527 26.8306 33.0806C28.0027 31.9085 29.5924 31.25 31.25 31.25V43.75Z" fill="#1A1D20"/>
</svg>
