<svg width="42" height="44" viewBox="0 0 42 44" fill="none" xmlns="http://www.w3.org/2000/svg">
<rect x="14" width="28" height="44" fill="#D9D9D9"/>
<path d="M14.5 29.6552C6.48875 29.6552 0 34.8265 0 41.211V44H29V41.211C29 34.8265 22.5112 29.6552 14.5 29.6552Z" fill="#1A1D20"/>
<path d="M14.0092 27.5807C18.0503 27.5807 21.3262 24.3398 21.3262 20.3421C21.3262 16.3443 18.0503 13.1034 14.0092 13.1034C9.9682 13.1034 6.69231 16.3443 6.69231 20.3421C6.69231 24.3398 9.9682 27.5807 14.0092 27.5807Z" fill="#FD4F50"/>
<path d="M8.36538 12H19.5192L21.1923 18.6207H6.69231L8.36538 12Z" fill="#1A1D20"/>
<path fill-rule="evenodd" clip-rule="evenodd" d="M12.2692 21.931H8.92308V20.8276H12.2692V21.931Z" fill="white"/>
<path fill-rule="evenodd" clip-rule="evenodd" d="M18.9615 21.931H15.6154V20.8276H18.9615V21.931Z" fill="white"/>
<path d="M3.34615 17.5172H24.5385V19.7241H3.34615V17.5172Z" fill="#1A1D20"/>
</svg>
