<svg width="57" height="45" viewBox="0 0 57 45" fill="none" xmlns="http://www.w3.org/2000/svg">
<path d="M0.127789 0H0V23.0488C0 35.1721 21.5322 45 21.5322 45V0H21.4044C19.0565 3.06596 15.1671 5.07042 10.7661 5.07042C6.36517 5.07042 2.47569 3.06596 0.127789 0Z" fill="#1A1D20"/>
<path d="M42.9799 0H43.1077V23.0488C43.1077 35.1721 21.5755 45 21.5755 45V0H21.7033C24.0512 3.06596 27.9407 5.07042 32.3416 5.07042C36.7426 5.07042 40.632 3.06596 42.9799 0Z" fill="#CED2DB"/>
<path d="M10.8083 13.3521L12.5904 18.841H18.3572L13.6917 22.2334L15.4738 27.7223L10.8083 24.33L6.14286 27.7223L7.92491 22.2334L3.25944 18.841H9.02628L10.8083 13.3521Z" fill="white"/>
<path d="M38.3212 14.0384C31.0564 16.6569 27.2693 24.6336 29.8656 31.8483C32.4619 39.0629 40.4613 42.7913 47.7261 40.1728C54.9909 37.5543 58.778 29.5776 56.1817 22.363C53.5854 15.1483 45.586 11.4199 38.3212 14.0384Z" fill="white"/>
<path d="M39.4369 17.093C33.8737 19.0982 30.9735 25.2066 32.9617 30.7315C34.95 36.2563 41.0758 39.1115 46.639 37.1063C52.2023 35.1011 55.1024 28.9926 53.1142 23.4678C51.126 17.9429 45.0002 15.0878 39.4369 17.093Z" fill="#FD4F50"/>
<path fill-rule="evenodd" clip-rule="evenodd" d="M38.5895 24.1639L39.9785 22.7746L42.9745 25.7753L45.9714 22.7746L47.3585 24.1639L44.3626 27.1656L47.3654 30.1731L45.9782 31.5634L42.9745 28.5549L39.9717 31.5634L38.5836 30.1731L41.5874 27.1656L38.5895 24.1639Z" fill="white"/>
</svg>
