<svg width="49" height="49" viewBox="0 0 49 49" fill="none" xmlns="http://www.w3.org/2000/svg">
<path d="M24.5 0H4.08334V32.6667H24.5V0ZM44.9167 40.8333H28.5833V49H44.9167V40.8333Z" fill="#464B55"/>
<path d="M47.9792 8.98335H1.02083C0.750092 8.98335 0.490439 9.0909 0.298995 9.28234C0.107552 9.47379 0 9.73344 0 10.0042V39.8125C0 40.0833 0.107552 40.3429 0.298995 40.5344C0.490439 40.7258 0.750092 40.8333 1.02083 40.8333H47.9792C48.2499 40.8333 48.5096 40.7258 48.701 40.5344C48.8924 40.3429 49 40.0833 49 39.8125V10.0042C49 9.73344 48.8924 9.47379 48.701 9.28234C48.5096 9.0909 48.2499 8.98335 47.9792 8.98335Z" fill="#FE5D5D"/>
<path d="M24.5 8.98335H4.08334V32.6667H24.5V8.98335Z" fill="#1A1D20"/>
<path fill-rule="evenodd" clip-rule="evenodd" d="M14.2917 20.4167C13.2087 20.4167 12.1701 19.9865 11.4043 19.2207C10.6386 18.4549 10.2083 17.4163 10.2083 16.3333C10.2083 15.2504 10.6386 14.2118 11.4043 13.446C12.1701 12.6802 13.2087 12.25 14.2917 12.25C15.3746 12.25 16.4133 12.6802 17.179 13.446C17.9448 14.2118 18.375 15.2504 18.375 16.3333C18.375 17.4163 17.9448 18.4549 17.179 19.2207C16.4133 19.9865 15.3746 20.4167 14.2917 20.4167ZM14.2917 20.4167C15.9161 20.4167 17.4741 21.062 18.6227 22.2106C19.7714 23.3593 20.4167 24.9172 20.4167 26.5417V32.6667H8.16668V26.5417C8.16668 24.9172 8.81199 23.3593 9.96065 22.2106C11.1093 21.062 12.6672 20.4167 14.2917 20.4167Z" fill="white"/>
<path fill-rule="evenodd" clip-rule="evenodd" d="M44.9167 24.5L44.9167 40.8333H28.5833L28.5833 24.5C28.5833 22.3341 29.4438 20.2569 30.9753 18.7253C32.5069 17.1938 34.5841 16.3333 36.75 16.3333C38.916 16.3333 40.9932 17.1938 42.5247 18.7253C44.0563 20.2569 44.9167 22.3341 44.9167 24.5Z" fill="#1A1D20"/>
<path d="M36.7835 24.5812C36.5084 24.5765 36.2452 24.6168 35.9938 24.7022C35.7424 24.7875 35.5361 24.9037 35.3749 25.0508C35.2136 25.1978 35.133 25.3638 35.133 25.5488C35.133 25.8049 35.2089 25.997 35.3606 26.125C35.5124 26.2484 35.7116 26.3361 35.9582 26.3883C36.2096 26.4404 36.4847 26.4879 36.7835 26.5306C37.4665 26.6302 38.0949 26.808 38.6688 27.0641C39.2427 27.3202 39.7028 27.6617 40.049 28.0886C40.3952 28.5155 40.5683 29.0348 40.5683 29.6466C40.5683 30.1921 40.4308 30.6806 40.1557 31.1122C39.8806 31.5391 39.5107 31.89 39.0459 32.1651C38.5811 32.4402 38.0641 32.6204 37.4949 32.7058V34.1714H36.0721V32.7058C35.6025 32.6394 35.1614 32.5113 34.7488 32.3216C34.3362 32.1272 33.9781 31.8805 33.6745 31.5817C33.371 31.2782 33.1457 30.9272 32.9987 30.5288L35.0049 29.7889C35.0523 29.9265 35.1567 30.0593 35.318 30.1873C35.484 30.3154 35.6926 30.4221 35.944 30.5075C36.1954 30.5881 36.4752 30.6284 36.7835 30.6284C37.0681 30.6284 37.3361 30.5881 37.5874 30.5075C37.8388 30.4221 38.0427 30.3059 38.1993 30.1589C38.3558 30.0118 38.434 29.8411 38.434 29.6466C38.434 29.4474 38.351 29.2838 38.185 29.1557C38.0238 29.0229 37.8151 28.9186 37.559 28.8427C37.3076 28.7621 37.0491 28.7028 36.7835 28.6649C36.0626 28.5605 35.4152 28.3898 34.8413 28.1526C34.2721 27.9107 33.8216 27.5787 33.4896 27.1566C33.1623 26.7345 32.9987 26.1986 32.9987 25.5488C32.9987 24.9986 33.1362 24.5077 33.4113 24.0761C33.6864 23.6445 34.0563 23.2912 34.5211 23.0161C34.9859 22.741 35.5029 22.5608 36.0721 22.4754V21.0241H37.4949V22.4754C37.9597 22.5418 38.3985 22.6722 38.8111 22.8667C39.2285 23.0611 39.5889 23.3125 39.8925 23.6208C40.2008 23.9243 40.426 24.2777 40.5683 24.6808L38.5621 25.4065C38.5147 25.2689 38.4079 25.1385 38.2419 25.0152C38.0807 24.8871 37.8744 24.7828 37.623 24.7022C37.3716 24.6215 37.0918 24.5812 36.7835 24.5812Z" fill="white"/>
</svg>
