<svg width="33" height="45" viewBox="0 0 33 45" fill="none" xmlns="http://www.w3.org/2000/svg">
<path d="M22.3931 11.25C22.3931 17.4632 17.3802 22.5 11.1966 22.5C5.01295 22.5 0.00012207 17.4632 0.00012207 11.25C0.00012207 5.03679 5.01295 0 11.1966 0C17.3802 0 22.3931 5.03679 22.3931 11.25Z" fill="#FD4F50"/>
<path d="M9.98468 14.1324V3.55262H12.7037V14.1324H9.98468ZM11.3551 18.9473C10.8983 18.9473 10.5104 18.789 10.1913 18.4723C9.87955 18.1556 9.72365 17.767 9.72365 17.3064C9.72365 16.8602 9.87955 16.4823 10.1913 16.1728C10.5104 15.8633 10.8983 15.7086 11.3551 15.7086C11.8046 15.7086 12.1853 15.8633 12.4971 16.1728C12.8088 16.4823 12.9647 16.8602 12.9647 17.3064C12.9647 17.767 12.8088 18.1556 12.4971 18.4723C12.1853 18.789 11.8046 18.9473 11.3551 18.9473Z" fill="white"/>
<path d="M11.3441 25.4605C19.0736 25.4605 25.3397 19.1645 25.3397 11.3981C25.3397 9.4288 24.9368 7.55408 24.2094 5.85257C29.2959 7.72669 32.9378 12.6095 32.9993 18.3553L33.0001 18.4761L33.0001 18.5033L33.0001 18.5306V28.7171H28.58V36.4145H22.3924V45H6.18702V24.4751C7.78291 25.111 9.52286 25.4605 11.3441 25.4605Z" fill="#1A1D20"/>
</svg>
