<svg width="45" height="40" viewBox="0 0 45 40" fill="none" xmlns="http://www.w3.org/2000/svg">
<path d="M18.0001 0L18 33.7547L8.39172e-05 14.1263L18.0001 0Z" fill="#0A0B0D"/>
<path d="M27.45 0.446274L28.0502 30.0373L45 14.1265L27.45 0.446274Z" fill="#0A0B0D"/>
<path d="M5.4 0.148891H39.3V36.7286H5.4V0.148891Z" fill="#FD4F50"/>
<path d="M45 14.1265V40H0L8.39172e-05 14.1263L22.4779 33.4573L45 14.1265Z" fill="#D9D9D9"/>
<path d="M5.4 0.148891H39.3V36.7286H5.4V0.148891Z" fill="#F96161" fill-opacity="0.6"/>
<path d="M22.2 9.39202L28.6878 19.8431H15.7122L22.2 9.39202ZM22.2 6.09682L12.6 21.5614H31.8L22.2 6.09682ZM21.3273 17.2657H23.0727V18.984H21.3273V17.2657ZM23.0727 12.97V16.4066H21.3273V12.97H23.0727Z" fill="white"/>
</svg>
