<svg width="27" height="32" viewBox="0 0 27 32" fill="none" xmlns="http://www.w3.org/2000/svg">
<path d="M-2.85291e-05 31.6957L9.3913 23.4783H0L-2.85291e-05 31.6957Z" fill="#FFA7A7"/>
<path d="M13.4997 31.6958L22.1412 22.8915H4.85832L13.4997 31.6958Z" fill="#FFA7A7"/>
<path d="M27.0007 31.6958L27.0007 23.4784H17.6094L27.0007 31.6958Z" fill="#FFA7A7"/>
<rect width="27" height="23.4783" fill="#FD4F50"/>
<path d="M20.853 5.20215H17.264L6.43945 19.6157H10.0284L20.853 5.20215Z" fill="white"/>
<path d="M9.1647 10.6526C10.6698 10.6526 11.8899 9.43251 11.8899 7.9274C11.8899 6.42228 10.6698 5.20215 9.1647 5.20215C7.6596 5.20215 6.43945 6.42228 6.43945 7.9274C6.43945 9.43251 7.6596 10.6526 9.1647 10.6526Z" fill="white"/>
<path d="M18.1276 19.616C19.6327 19.616 20.8528 18.3959 20.8528 16.8908C20.8528 15.3857 19.6327 14.1655 18.1276 14.1655C16.6225 14.1655 15.4023 15.3857 15.4023 16.8908C15.4023 18.3959 16.6225 19.616 18.1276 19.616Z" fill="white"/>
<path d="M16.6147 10.8837L12.7452 15.9826L10.6797 13.9378L14.5467 8.83643L16.6147 10.8837Z" fill="white"/>
</svg>
