<svg width="46" height="32" viewBox="0 0 46 32" fill="none" xmlns="http://www.w3.org/2000/svg">
<path d="M22.9999 -0.00012207H45.9999V29.9999H22.9999V-0.00012207Z" fill="#FD4F50"/>
<path d="M-0.00012207 -0.00012207H22.9999V31.9999H-0.00012207V-0.00012207Z" fill="#D9D9D9"/>
<path d="M-0.00012207 31.9999V28.9999H45.9999V31.9999H-0.00012207Z" fill="#0A0B0D"/>
<path d="M26.9999 13.9999H37.9999V15.7499H26.9999V13.9999Z" fill="white"/>
<path d="M26.9999 18.9999H33.9999V20.7499H26.9999V18.9999Z" fill="white"/>
<path d="M26.9999 8.99988H41.9999V10.7499H26.9999V8.99988Z" fill="white"/>
<path d="M12.0587 15.8236C8.1587 15.8236 4.99988 18.3683 4.99988 21.51V22.8824H19.1175V21.51C19.1175 18.3683 15.9587 15.8236 12.0587 15.8236Z" fill="#0A0B0D"/>
<path d="M12.0586 14.0587C14.0078 14.0587 15.588 12.4785 15.588 10.5293C15.588 8.58005 14.0078 6.99988 12.0586 6.99988C10.1093 6.99988 8.52917 8.58005 8.52917 10.5293C8.52917 12.4785 10.1093 14.0587 12.0586 14.0587Z" fill="#0A0B0D"/>
</svg>
