<svg width="54" height="50" viewBox="0 0 54 50" fill="none" xmlns="http://www.w3.org/2000/svg">
<path d="M20.0809 28.2292V50H0V32.8125C0 23.5069 1.10983 16.7708 3.32948 12.6042C6.24277 7.04861 10.8555 2.84722 17.1676 0L21.7457 7.29167C17.9306 8.88889 15.1214 11.2847 13.3179 14.4792C11.5145 17.6042 10.5087 22.1875 10.3006 28.2292H20.0809ZM52.3353 28.2292V50H32.2543V32.8125C32.2543 23.5069 33.3642 16.7708 35.5838 12.6042C38.4971 7.04861 43.1098 2.84722 49.422 0L54 7.29167C50.185 8.88889 47.3757 11.2847 45.5723 14.4792C43.7688 17.6042 42.763 22.1875 42.5549 28.2292H52.3353Z" fill="#FAC7C7"/>
</svg>
