<svg width="125" height="22" viewBox="0 0 125 22" fill="none" xmlns="http://www.w3.org/2000/svg">
<path d="M10.5337 0L12.8987 7.27861H20.5519L14.3603 11.777L16.7253 19.0557L10.5337 14.5572L4.34215 19.0557L6.70711 11.777L0.515556 7.27861H8.16874L10.5337 0Z" fill="#FD4F50"/>
<path d="M36.5181 0L38.883 7.27861H46.5362L40.3447 11.777L42.7096 19.0557L36.5181 14.5572L30.3265 19.0557L32.6915 11.777L26.4999 7.27861H34.1531L36.5181 0Z" fill="#FD4F50"/>
<path d="M62.4986 0L64.8635 7.27861H72.5167L66.3251 11.777L68.6901 19.0557L62.4986 14.5572L56.307 19.0557L58.672 11.777L52.4804 7.27861H60.1336L62.4986 0Z" fill="#FD4F50"/>
<path d="M88.4831 0L90.8481 7.27861H98.5013L92.3097 11.777L94.6747 19.0557L88.4831 14.5572L82.2916 19.0557L84.6565 11.777L78.465 7.27861H86.1181L88.4831 0Z" fill="#FD4F50"/>
<path d="M114.465 0L116.83 7.27861H124.483L118.292 11.777L120.657 19.0557L114.465 14.5572L108.274 19.0557L110.639 11.777L104.447 7.27861H112.1L114.465 0Z" fill="#FD4F50"/>
</svg>
