<svg width="96" height="92" viewBox="0 0 96 92" fill="none" xmlns="http://www.w3.org/2000/svg">
<path d="M71.3427 0H0V79.5079H71.3427V0Z" fill="#F8393A" fill-opacity="0.35"/>
<path d="M39.0013 20.2153C39.0013 22.7006 36.9866 24.7153 34.5013 24.7153C32.016 24.7153 30.0013 22.7006 30.0013 20.2153C30.0013 17.7301 32.016 15.7153 34.5013 15.7153C36.9866 15.7153 39.0013 17.7301 39.0013 20.2153Z" fill="#FD4F50"/>
<path d="M43.987 34.9414H25.002C25.2915 30.2275 29.4307 26.4893 34.4945 26.4893C39.5582 26.4893 43.6974 30.2275 43.987 34.9414Z" fill="#FD4F50"/>
<path d="M71.7685 79.8995V79.5081H0.425781V79.8995C0.425781 86.199 5.50646 91.2883 11.7951 91.2883H83.1378C76.8492 91.2883 71.7685 86.199 71.7685 79.8995Z" fill="#F8393A" fill-opacity="0.8"/>
<path d="M83.9186 91.2883H83.1369C76.8483 91.2883 71.7676 86.199 71.7676 79.8995V79.5081H95.2879V79.8995C95.2879 86.199 90.2073 91.2883 83.9186 91.2883Z" fill="#F8393A" fill-opacity="0.15"/>
<path d="M57.6278 42.1741H12.1504V45.1741H57.6278V42.1741Z" fill="#FAFAFA"/>
<path d="M57.6278 51.0715H12.1504V54.0715H57.6278V51.0715Z" fill="#FAFAFA"/>
<path d="M57.6278 59.7153H12.1504V62.7153H57.6278V59.7153Z" fill="#FAFAFA"/>
<path d="M45.192 68.1548H22.8086V71.1548H45.192V68.1548Z" fill="#FAFAFA"/>
</svg>
