<svg width="47" height="30" viewBox="0 0 47 30" fill="none" xmlns="http://www.w3.org/2000/svg">
<path d="M17 19H29V30H17V19Z" fill="#0A0B0D"/>
<path fill-rule="evenodd" clip-rule="evenodd" d="M33 14C36.866 14 40 10.866 40 7C40 3.134 36.866 0 33 0C29.134 0 26 3.134 26 7C26 10.866 29.134 14 33 14ZM0 27.278C0 21.047 6.26489 16 14 16C17.6675 16 21.0046 17.1346 23.5 18.9921C20.7324 21.0522 19 24.0014 19 27.278V30H0V27.278ZM23.5 18.9921C25.9954 17.1346 29.3325 16 33 16C40.7351 16 47 21.047 47 27.278V30H28V27.278C28 24.0014 26.2676 21.0522 23.5 18.9921ZM21 7C21 10.866 17.866 14 14 14C10.134 14 7 10.866 7 7C7 3.134 10.134 0 14 0C17.866 0 21 3.134 21 7Z" fill="#FD4F50"/>
<path fill-rule="evenodd" clip-rule="evenodd" d="M0 27.278C0 21.047 6.26489 16 14 16C17.6675 16 21.0046 17.1346 23.5 18.9921C20.7324 21.0522 19 24.0014 19 27.278V30H0V27.278ZM21 7C21 10.866 17.866 14 14 14C10.134 14 7 10.866 7 7C7 3.134 10.134 0 14 0C17.866 0 21 3.134 21 7Z" fill="#C6C6C6"/>
<path d="M21 7C21 10.866 17.866 14 14 14C10.134 14 7 10.866 7 7C7 3.134 10.134 0 14 0C17.866 0 21 3.134 21 7Z" fill="#C6C6C6"/>
</svg>
