<svg width="36" height="40" viewBox="0 0 36 40" fill="none" xmlns="http://www.w3.org/2000/svg">
<path d="M0 3.47754H5.21739V36.521H0V3.47754Z" fill="#D9D9D9"/>
<path d="M30.4361 3.47777H35.6535V36.5213H30.4361V3.47777Z" fill="#D9D9D9"/>
<path d="M5.21875 2.60821H30.4361L30.4361 36.5213H5.21875V2.60821Z" fill="#FD4F50"/>
<path d="M5.21875 36.5213C5.21875 38.4422 6.77602 39.9995 8.69701 39.9995H26.9579C28.8789 39.9995 30.4361 38.4422 30.4361 36.5213H5.21875Z" fill="#0A0B0D"/>
<path d="M6.33456 -0.000488281C5.71831 -0.000488281 5.21875 0.648377 5.21875 1.44879V3.18792H10.1283V3.76763C10.1283 4.56804 10.6279 5.2169 11.2441 5.2169H24.4107C25.027 5.2169 25.5266 4.56804 25.5266 3.76763V3.18792H30.4361V1.44879C30.4361 0.648377 29.9366 -0.000488281 29.3203 -0.000488281H6.33456Z" fill="#0A0B0D"/>
<path d="M14.3764 34.7451C14.3764 34.2853 14.7491 33.9126 15.2089 33.9126H20.2043C20.6641 33.9126 21.0369 34.2853 21.0369 34.7451C21.0369 35.2049 20.6641 35.5777 20.2043 35.5777H15.2089C14.7491 35.5777 14.3764 35.2049 14.3764 34.7451Z" fill="#BFC4CF"/>
<path d="M11.3055 22.0753V11.9607H14.0104V22.0753H11.3055ZM12.6688 26.6785C12.2144 26.6785 11.8285 26.5271 11.5111 26.2244C11.2009 25.9216 11.0459 25.5501 11.0459 25.1097C11.0459 24.6831 11.2009 24.3219 11.5111 24.026C11.8285 23.7301 12.2144 23.5822 12.6688 23.5822C13.116 23.5822 13.4947 23.7301 13.8048 24.026C14.115 24.3219 14.2701 24.6831 14.2701 25.1097C14.2701 25.5501 14.115 25.9216 13.8048 26.2244C13.4947 26.5271 13.116 26.6785 12.6688 26.6785Z" fill="white"/>
<path d="M20.1781 22.2817C20.1781 21.4492 20.3981 20.6854 20.8381 19.9905C21.278 19.2886 21.8803 18.7382 22.6449 18.3391C22.9479 18.1808 23.1859 17.9538 23.359 17.6579C23.5321 17.3552 23.6187 17.018 23.6187 16.6465C23.6187 16.3024 23.5285 15.9893 23.3482 15.7072C23.1751 15.4251 22.937 15.2015 22.6341 15.0364C22.3384 14.8712 22.0102 14.7887 21.6495 14.7887C21.2889 14.7887 20.9571 14.8712 20.6541 15.0364C20.3584 15.2015 20.1204 15.4251 19.94 15.7072C19.7669 15.9893 19.6804 16.3024 19.6804 16.6465H16.4345C16.4345 15.7382 16.6689 14.9091 17.1378 14.1591C17.6066 13.4091 18.2341 12.8105 19.0204 12.3632C19.8138 11.916 20.6902 11.6924 21.6495 11.6924C22.6089 11.6924 23.4816 11.916 24.2679 12.3632C25.0613 12.8105 25.6924 13.4091 26.1613 14.1591C26.6301 14.9091 26.8645 15.7382 26.8645 16.6465C26.8645 17.5822 26.6265 18.4458 26.1505 19.237C25.6744 20.0283 25.018 20.6372 24.1813 21.0639C23.9433 21.1808 23.7557 21.3494 23.6187 21.5696C23.4888 21.7829 23.4239 22.0203 23.4239 22.2817H20.1781ZM21.9741 26.6785C21.5197 26.6785 21.1338 26.5271 20.8164 26.2244C20.5063 25.9216 20.3512 25.5501 20.3512 25.1097C20.3512 24.6831 20.5063 24.3219 20.8164 24.026C21.1338 23.7301 21.5197 23.5822 21.9741 23.5822C22.4213 23.5822 22.8 23.7301 23.1102 24.026C23.4203 24.3219 23.5754 24.6831 23.5754 25.1097C23.5754 25.5501 23.4203 25.9216 23.1102 26.2244C22.8 26.5271 22.4213 26.6785 21.9741 26.6785Z" fill="white"/>
</svg>
