<svg width="16" height="15" viewBox="0 0 16 15" fill="none" xmlns="http://www.w3.org/2000/svg">
<path d="M1.55859 2.18555H14.6748V13.1157H1.55859V2.18555Z" fill="#10007A"/>
<path d="M15.1624 2.72898V11.839C15.1624 12.6015 14.8992 13.2436 14.3526 13.7653C13.806 14.3071 13.1582 14.5679 12.4091 14.5679H3.2181C2.44881 14.5679 1.80098 14.3071 1.27463 13.7653C0.728023 13.2235 0.464844 12.5814 0.464844 11.839V2.72898C0.464844 1.96647 0.728023 1.32436 1.27463 0.802642C1.82123 0.260859 2.46905 0 3.2181 0H12.4091C13.1784 0 13.8262 0.260859 14.3526 0.802642C14.8992 1.32436 15.1624 1.96647 15.1624 2.72898ZM7.02408 11.1166L12.895 5.29744C13.0165 5.17704 13.0772 5.03658 13.0772 4.87605C13.0772 4.71552 13.0165 4.57506 12.895 4.45466L11.9233 3.49149C11.8018 3.3711 11.6601 3.3109 11.4981 3.3109C11.3362 3.3109 11.1945 3.3711 11.073 3.49149L6.59894 7.92609L4.57449 5.91949C4.45302 5.79909 4.31131 5.73889 4.14935 5.73889C3.98739 5.73889 3.84568 5.79909 3.72421 5.91949L2.75248 6.88265C2.63101 7.00305 2.57028 7.14351 2.57028 7.30404C2.57028 7.46457 2.63101 7.60503 2.75248 7.72543L6.17381 11.1166C6.29527 11.237 6.43699 11.2972 6.59894 11.2972C6.7609 11.2972 6.90261 11.237 7.02408 11.1166Z" fill="#E5E1FF"/>
</svg>
