<svg width="15" height="15" viewBox="0 0 15 15" fill="none" xmlns="http://www.w3.org/2000/svg">
<path d="M15 7.5C15 11.6421 11.6421 15 7.5 15C3.35786 15 0 11.6421 0 7.5C0 3.35786 3.35786 0 7.5 0C11.6421 0 15 3.35786 15 7.5Z" fill="#71EC94"/>
<path d="M2.61782 3.48561H12.8542V12.0919H2.61782V3.48561Z" fill="#00B67A"/>
<path d="M13.2353 3.91347V11.0865C13.2353 11.6869 13.0299 12.1925 12.6033 12.6033C12.1767 13.0299 11.6711 13.2353 11.0865 13.2353H3.91346C3.31307 13.2353 2.80749 13.0299 2.39669 12.6033C1.9701 12.1767 1.76471 11.6711 1.76471 11.0865V3.91347C1.76471 3.31308 1.9701 2.80749 2.39669 2.39669C2.82329 1.9701 3.32887 1.76471 3.91346 1.76471H11.0865C11.6869 1.76471 12.1925 1.9701 12.6033 2.39669C13.0299 2.80749 13.2353 3.31308 13.2353 3.91347ZM6.88381 10.5177L11.4657 5.93583C11.5605 5.84103 11.6079 5.73043 11.6079 5.60404C11.6079 5.47764 11.5605 5.36704 11.4657 5.27224L10.7073 4.51386C10.6125 4.41906 10.5019 4.37166 10.3756 4.37166C10.2492 4.37166 10.1386 4.41906 10.0438 4.51386L6.55202 8.00559L4.97205 6.42562C4.87725 6.33082 4.76665 6.28342 4.64025 6.28342C4.51385 6.28342 4.40325 6.33082 4.30846 6.42562L3.55007 7.18401C3.45527 7.2788 3.40788 7.3894 3.40788 7.5158C3.40788 7.6422 3.45527 7.7528 3.55007 7.8476L6.22022 10.5177C6.31502 10.6125 6.42562 10.6599 6.55202 10.6599C6.67842 10.6599 6.78901 10.6125 6.88381 10.5177Z" fill="#71EC94"/>
</svg>
