<svg width="18" height="17" viewBox="0 0 18 17" fill="none" xmlns="http://www.w3.org/2000/svg">
<path d="M3.73472 1.85128C3.73101 2.2131 3.6187 2.56575 3.41195 2.86478C3.2052 3.1638 2.91325 3.39582 2.57291 3.5316C2.23257 3.66738 1.85905 3.70084 1.49945 3.62776C1.13984 3.55468 0.810232 3.37833 0.552161 3.12094C0.29409 2.86355 0.119105 2.53663 0.04926 2.1814C-0.0205852 1.82616 0.0178349 1.4585 0.159678 1.12475C0.301521 0.790992 0.54044 0.506084 0.846324 0.305928C1.15221 0.105772 1.51137 -0.000674506 1.87854 3.21613e-06C2.12378 0.00138818 2.36635 0.0503784 2.59237 0.144175C2.8184 0.237972 3.02346 0.374736 3.19583 0.546656C3.3682 0.718575 3.50452 0.92228 3.59698 1.14613C3.68945 1.36998 3.73625 1.6096 3.73472 1.85128ZM3.74993 5.1774H0V16.9991H3.74993V5.1774ZM9.73621 5.1774H6.01044V16.9991H9.7371V10.7921C9.7371 7.34075 14.259 7.05777 14.259 10.7921V17H18V9.51115C18 3.68669 11.3088 3.89914 9.73621 6.76597V5.17388V5.1774Z" fill="white"/>
</svg>
