<svg width="19" height="19" viewBox="0 0 19 19" fill="none" xmlns="http://www.w3.org/2000/svg">
<path d="M12.54 9.5C12.54 10.1013 12.3617 10.689 12.0277 11.1889C11.6936 11.6889 11.2188 12.0785 10.6634 12.3086C10.1079 12.5387 9.49663 12.5989 8.90693 12.4816C8.31722 12.3643 7.77555 12.0748 7.3504 11.6496C6.92524 11.2245 6.63571 10.6828 6.51841 10.0931C6.40111 9.50337 6.46132 8.89213 6.69141 8.33664C6.9215 7.78115 7.31114 7.30637 7.81107 6.97233C8.31099 6.63829 8.89874 6.46 9.5 6.46C10.306 6.46092 11.0787 6.7815 11.6486 7.35141C12.2185 7.92132 12.5391 8.69403 12.54 9.5ZM19 5.32V13.68C18.9984 15.0905 18.4374 16.4427 17.44 17.44C16.4427 18.4374 15.0905 18.9984 13.68 19H5.32C3.90954 18.9984 2.5573 18.4374 1.55996 17.44C0.562609 16.4427 0.0015974 15.0905 0 13.68V5.32C0.0015974 3.90954 0.562609 2.5573 1.55996 1.55996C2.5573 0.562609 3.90954 0.0015974 5.32 0H13.68C15.0905 0.0015974 16.4427 0.562609 17.44 1.55996C18.4374 2.5573 18.9984 3.90954 19 5.32ZM14.06 9.5C14.06 8.59812 13.7926 7.71649 13.2915 6.9666C12.7904 6.21671 12.0783 5.63225 11.245 5.28711C10.4118 4.94197 9.49494 4.85167 8.61039 5.02762C7.72583 5.20357 6.91332 5.63787 6.27559 6.27559C5.63787 6.91332 5.20357 7.72583 5.02762 8.61039C4.85167 9.49494 4.94197 10.4118 5.28711 11.245C5.63225 12.0783 6.21671 12.7904 6.9666 13.2915C7.71649 13.7926 8.59812 14.06 9.5 14.06C10.709 14.0586 11.868 13.5778 12.7229 12.7229C13.5778 11.868 14.0586 10.709 14.06 9.5ZM15.58 4.56C15.58 4.33453 15.5131 4.11412 15.3879 3.92665C15.2626 3.73918 15.0846 3.59306 14.8763 3.50678C14.668 3.42049 14.4387 3.39792 14.2176 3.4419C13.9965 3.48589 13.7933 3.59447 13.6339 3.7539C13.4745 3.91333 13.3659 4.11646 13.3219 4.3376C13.2779 4.55873 13.3005 4.78795 13.3868 4.99626C13.4731 5.20457 13.6192 5.38261 13.8067 5.50788C13.9941 5.63314 14.2145 5.7 14.44 5.7C14.7423 5.7 15.0323 5.57989 15.2461 5.3661C15.4599 5.15231 15.58 4.86235 15.58 4.56Z" fill="white"/>
</svg>
